<svg xmlns="http://www.w3.org/2000/svg" width="468.878" height="420.709" viewBox="0 0 468.878 420.709">
    <defs>
        <style>
            .cls-1,.cls-4{fill:#a11846}.cls-2{fill:#4d1226}.cls-3,.cls-5{fill:#ec5d81}.cls-4{opacity:.3}.cls-5{opacity:.54}.cls-6{fill:#131637}.cls-7{fill:#fff}
        </style>
    </defs>
    <g id="Group_1557" data-name="Group 1557" transform="translate(-878.142 -1038.667)">
        <path id="Path_1807" d="M-341.46 1001.763l-7.384 19.813 20.149-7.884a43.312 43.312 0 0 0 22.761 6.464 43.586 43.586 0 0 0 43.582-43.586 43.584 43.584 0 0 0-43.582-43.581 43.585 43.585 0 0 0-43.586 43.581 43.323 43.323 0 0 0 8.06 25.193z" class="cls-1" data-name="Path 1807" transform="translate(1594.078 105.678)"/>
        <g id="Group_1446" data-name="Group 1446" transform="translate(820 1037)">
            <path id="Path_1597" d="M-85.308 693.463c-1.368-6.116-11.231-15.842-26.9-2.017-18.749 16.544-37.491 25.006-71.688 14.67l-5.759 10.423s30.265 28.089 83.918 3.541c15.663-7.167 22.689-16.511 20.429-26.617z" class="cls-1" data-name="Path 1597" transform="translate(529.256 -517.817)"/>
            <g id="Group_1434" data-name="Group 1434" transform="translate(0 19.32)">
                <g id="Group_1431" data-name="Group 1431" transform="translate(58.142)">
                    <path id="Path_1598" d="M-156.365 779.409l73.565 65.513a50.2 50.2 0 0 0 70.662-4.094 50.2 50.2 0 0 0-4.091-70.662L-89.8 704.652a50.2 50.2 0 0 0-70.662 4.094 50.2 50.2 0 0 0 4.097 70.663z" class="cls-1" data-name="Path 1598" transform="translate(344.649 -525.838)"/>
                    <path id="Path_1599" d="M-131.85 843.3a25.549 25.549 0 0 0 35.967-2.084l64-71.872a25.546 25.546 0 0 0-2.084-35.964 25.546 25.546 0 0 0-35.964 2.084l-64 71.869a25.552 25.552 0 0 0 2.081 35.967z" class="cls-1" data-name="Path 1599" transform="translate(289.514 -474.229)"/>
                    <path id="Path_1600" d="M-129.414 748.956l15.665 30.764 17.511-19.664z" class="cls-1" data-name="Path 1600" transform="translate(333.182 -441.712)"/>
                    <path id="Path_1601" d="M-118.871 790.06a12.575 12.575 0 0 0 17.7-1.023l30.116-33.821a12.57 12.57 0 0 0-1.026-17.7 12.573 12.573 0 0 0-17.7 1.026l-30.114 33.818a12.572 12.572 0 0 0 1.024 17.7z" class="cls-2" data-name="Path 1601" transform="translate(289.08 -463.284)"/>
                    <path id="Path_1602" d="M-113.066 770.8a8.25 8.25 0 0 1-.672-11.612l18.162-20.388a8.249 8.249 0 0 1 11.61-.674 8.247 8.247 0 0 1 .674 11.612l-18.162 20.395a8.248 8.248 0 0 1-11.612.667z" class="cls-1" data-name="Path 1602" transform="translate(284.451 -460.785)"/>
                    <path id="Path_1603" d="M-8.849 651.608s28.964 86.815 95.693 143.481c17.153 15.275 7.64 53.958-21.25 86.4s-66.214 46.36-83.367 31.085c-63.994-59.739-153.571-78.486-153.571-78.486l56.423-113.345z" class="cls-3" data-name="Path 1603" transform="translate(245.47 -585.6)"/>
                    <path id="Path_1604" d="M27.23 651.608a320.587 320.587 0 0 0 14.821 34.916c-13.922 29.7-33.9 60.081-59.528 88.864s-53.5 52.134-81.395 69.391a321 321 0 0 0-36.393-10.691l56.423-113.345z" class="cls-4" data-name="Path 1604" transform="translate(209.391 -585.6)"/>
                    <g id="Group_1430" data-name="Group 1430">
                        <path id="Path_1605" d="M76.9 644.328c34.4 30.639 19.439 101.718-34.075 161.814s-122.387 83.167-156.8 52.528-19.444-101.721 34.075-161.817 122.385-83.169 156.8-52.525z" class="cls-1" data-name="Path 1605" transform="translate(149.089 -616.354)"/>
                        <ellipse id="Ellipse_79" cx="64.595" cy="122.172" class="cls-2" data-name="Ellipse 79" rx="64.595" ry="122.172" transform="rotate(-138.315 99.332 115.833)"/>
                        <g id="Group_1429" data-name="Group 1429" transform="translate(35.639 33.376)">
                            <path id="Path_1606" d="M-117.889 638.44c10.524.27 19.706 3.345 26.709 9.583 26.642 23.725 11.865 83.806-33.008 134.2 33.079-37.149 33.625-93.923 6.299-143.783z" class="cls-2" data-name="Path 1606" transform="translate(266.279 -638.44)"/>
                            <path id="Path_1607" d="M36.572 696.461C-8.3 746.85-66.274 768.469-92.915 744.744c-7-6.237-11.119-15-12.6-25.425 52.677 21.388 109.009 14.288 142.087-22.858z" class="cls-2" data-name="Path 1607" transform="translate(105.519 -552.68)"/>
                        </g>
                        <path id="Path_1608" d="M8.24 682.81c-7.409 21.1-20.888 43.859-39.657 64.935-19.292 21.666-41 37.994-61.61 47.7l-28.5-73.024 38.187-37.245 17.56-23.415L6.3 682.282c.659.154 1.308.327 1.94.528z" class="cls-1" data-name="Path 1608" transform="translate(209.146 -570.589)"/>
                        <path id="Path_1609" d="M-28.817 668.713l11.585 3.3c.659.154 1.308.327 1.94.528-7.409 21.1-20.888 43.859-39.657 64.935-19.292 21.666-41 37.994-61.61 47.7l-4.964-12.72c79.329-15.786 91.058-80.865 92.706-103.743z" class="cls-1" data-name="Path 1609" transform="translate(232.678 -560.318)"/>
                        <path id="Path_1610" d="M-78.525 680.75c-15.287 17.168-20.323 37.637-11.246 45.721s28.828.716 44.115-16.45 20.32-37.637 11.243-45.718-28.827-.718-44.112 16.447z" class="cls-2" data-name="Path 1610" transform="translate(179.79 -571.686)"/>
                        <path id="Path_1611" d="M-78.209 678.022C-89 690.145-92.559 704.6-86.151 710.309s20.357.505 31.154-11.617 14.351-26.577 7.94-32.284-20.357-.508-31.152 11.614z" class="cls-1" data-name="Path 1611" transform="translate(181.502 -567.151)"/>
                        <path id="Path_1612" d="M-79.269 675.778c-4.944 5.551-6.569 12.17-3.635 14.782s9.32.233 14.261-5.318 6.572-12.167 3.638-14.782-9.323-.233-14.264 5.318z" class="cls-1" data-name="Path 1612" transform="translate(188.854 -559.304)"/>
                        <path id="Path_1613" d="M-74.28 675.764c-13.754 15.445-18.283 33.86-10.12 41.136s25.936.644 39.689-14.8 18.283-33.86 10.116-41.134-25.932-.648-39.685 14.798z" class="cls-5" data-name="Path 1613" transform="translate(165.983 -576.134)"/>
                        <ellipse id="Ellipse_80" cx="31.344" cy="59.283" class="cls-5" data-name="Ellipse 80" rx="31.344" ry="59.283" transform="rotate(-138.33 65.164 65.484)"/>
                        <path id="Path_1614" d="M-62.595 660.629c-7.645 8.584-10.163 18.821-5.623 22.863s14.415.359 22.057-8.225S-36 656.446-40.537 652.4s-14.415-.355-22.058 8.229z" class="cls-5" data-name="Path 1614" transform="translate(129.17 -586.848)"/>
                    </g>
                </g>
                <path id="Path_1615" d="M-112.191 757.356a1.976 1.976 0 0 0 2.783-.161l5.4-6.066a1.976 1.976 0 0 0-.161-2.783 1.978 1.978 0 0 0-2.783.161l-5.4 6.069a1.975 1.975 0 0 0 .161 2.78z" class="cls-1" data-name="Path 1615" transform="translate(357.543 -443.348)"/>
                <path id="Path_1616" d="M-104.927 756.163a2.274 2.274 0 0 1-3.209.186 2.274 2.274 0 0 1-.186-3.209 2.276 2.276 0 0 1 3.209-.186 2.274 2.274 0 0 1 .186 3.209z" class="cls-1" data-name="Path 1616" transform="translate(348.594 -436.653)"/>
                <g id="Group_1432" data-name="Group 1432" transform="translate(222.987 152.145)">
                    <path id="Path_1617" d="M-61.388 706.264a265.457 265.457 0 0 0 4.411 4.037c0 53.693-31.437 101.757-104.563 117.424q-2.245-1.992-4.523-3.913c64.58-18.492 98.527-51.661 104.675-117.548z" class="cls-2" data-name="Path 1617" transform="translate(219.891 -656.96)"/>
                    <path id="Path_1618" d="M-42.479 686.368a320.815 320.815 0 0 0 28.773 35.979c-4.805 55.487-44 105.554-106.153 119.208a320.4 320.4 0 0 0-39.059-24.426c69.301-15.57 108.37-67.54 116.439-130.761z" class="cls-2" data-name="Path 1618" transform="translate(158.919 -686.368)"/>
                </g>
            </g>
            <g id="Group_1440" data-name="Group 1440" transform="translate(407.812 104.963)">
                <g id="Group_1439" data-name="Group 1439">
                    <g id="Group_1438" data-name="Group 1438">
                        <g id="Group_1437" data-name="Group 1437">
                            <g id="Group_1436" data-name="Group 1436">
                                <g id="Group_1435" data-name="Group 1435" transform="translate(2.58)">
                                    <path id="Path_1622" d="M-163.411 674.267a10.526 10.526 0 0 1-9.8 11.206 10.526 10.526 0 0 1-11.206-9.8 10.528 10.528 0 0 1 9.8-11.208 10.528 10.528 0 0 1 11.206 9.802z" class="cls-2" data-name="Path 1622" transform="translate(184.442 -652.276)"/>
                                    <path id="Path_1623" d="M-168.5 668.887a7.18 7.18 0 0 1-6.683 7.642 7.181 7.181 0 0 1-7.645-6.683 7.181 7.181 0 0 1 6.686-7.645 7.179 7.179 0 0 1 7.642 6.686z" class="cls-2" data-name="Path 1623" transform="translate(185.598 -655.609)"/>
                                    <path id="Path_1624" d="M-180.184 665.53a2.616 2.616 0 0 0 2.349 2.855 2.613 2.613 0 0 0 2.852-2.352 2.611 2.611 0 0 0-2.349-2.852 2.612 2.612 0 0 0-2.852 2.349z" class="cls-2" data-name="Path 1624" transform="translate(185.503 -654.155)"/>
                                    <path id="Path_1625" d="M-180.058 666.835a2.612 2.612 0 0 0 2.349 2.852 2.612 2.612 0 0 0 2.852-2.349 2.612 2.612 0 0 0-2.349-2.852 2.612 2.612 0 0 0-2.852 2.349z" class="cls-6" data-name="Path 1625" transform="translate(185.065 -652.226)"/>
                                    <path id="Path_1626" d="M-197.44 668.557s2.362-11.283 17.56-8.619c0 0 12.779-1.306 18.643 12.522a28.283 28.283 0 0 0-3.117 13.748c.895 21.418 4.081 44.469 16.147 62.747.2.3.419.57.622.862 1.016 2.8 2.1 5.563 3.271 8.277-3.576 3.147-9.218 5.5-18.2 4.483-9.721-21.968-14.469-45.678-14.469-45.678l-9.03-16.207-10.21-9.1s-9.159-21.392-1.217-23.035z" class="cls-2" data-name="Path 1626" transform="translate(205.612 -659.531)"/>
                                    <path id="Path_1627" d="M-174.492 666.2c-.015.216-4.488 10.579-4.532 18.581l7.494-.31z" class="cls-3" data-name="Path 1627" transform="translate(179.159 -649.671)"/>
                                    <path id="Path_1628" d="M-182.428 663.969s-14.469 11.593-1.754 39.451l10.973-2.168.875 13.084 14.3-.957-1.018-15.213a15.724 15.724 0 0 1-6.9-11.766s7.328-.939 6.235-7.565c-.694-4.225-6.745-4.624-8.284-.243l.285 4.295s-3.239-1.343-3.957-7.248c0 0-7.709-4.23-4.619-12.078z" class="cls-3" data-name="Path 1628" transform="translate(191.405 -653.578)"/>
                                    <path id="Path_1630" d="M-182.11 666.038a4.176 4.176 0 0 0 3.757 4.557 4.172 4.172 0 0 0 4.557-3.754 4.176 4.176 0 0 0-3.754-4.56 4.18 4.18 0 0 0-4.56 3.757z" class="cls-2" data-name="Path 1630" transform="translate(189.099 -655.496)"/>
                                    <path id="Path_1631" d="M-185.842 669.543a6.415 6.415 0 0 0 5.769 7.006 6.419 6.419 0 0 0 7.006-5.769 6.419 6.419 0 0 0-5.771-7.006 6.415 6.415 0 0 0-7.004 5.769z" class="cls-2" data-name="Path 1631" transform="translate(197.637 -653.306)"/>
                                </g>
                                <path id="Path_1632" d="M-166.418 681.461c7.36-.491 14.482 5.159 13.966 12.517-3.147 44.9 12.787 83.556 12.787 83.556h-49.8s4.339-40.137 3.231-43.094-12.509-7.065-12.509-18.44l19.577-26.964a16.4 16.4 0 0 1 12.748-7.575z" class="cls-1" data-name="Path 1632" transform="translate(198.745 -627.163)"/>
                                <path id="Path_1633" d="M-188.764 725.222c-.325-.867-1.549-1.844-3.1-3.065a99.664 99.664 0 0 0 4.1-16.744c3.392-20.618 17.181-19.324 22.109-15.448 8.14 6.4 8.611 18.078 1.011 33.536-7.888 16.043-17.168 26.961-26.273 34.421 1.199-12.109 2.894-30.722 2.153-32.7z" class="cls-1" data-name="Path 1633" transform="translate(201.273 -617.948)"/>
                                <path id="Path_1634" d="M-165.175 685l-.453.295-3.715 1.085a3.444 3.444 0 0 0-2.453 3.7l.387 3.358a17.538 17.538 0 0 0-11.077 15.258" class="cls-2" data-name="Path 1634" transform="translate(183.966 -621.891)"/>
                                <path id="Path_1635" d="M-171.471 682.95l-.28-1.5c1.772.788-9.352-3.457-17.443 4.166l-.746 5.328a40.473 40.473 0 0 1 18.469-7.994z" class="cls-2" data-name="Path 1635" transform="translate(208.731 -627.839)"/>
                                <path id="Path_1636" d="M-177.7 683.265a7.269 7.269 0 0 1-7.935 6.537 7.271 7.271 0 0 1-6.537-7.937 7.27 7.27 0 0 1 7.935-6.535 7.269 7.269 0 0 1 6.537 7.935z" class="cls-2" data-name="Path 1636" transform="translate(220.541 -636.231)"/>
                                <path id="Path_1637" d="M-183.1 684.642a5.353 5.353 0 0 1-5.843 4.812 5.354 5.354 0 0 1-4.812-5.843 5.351 5.351 0 0 1 5.843-4.812 5.349 5.349 0 0 1 4.812 5.843z" class="cls-6" data-name="Path 1637" transform="translate(229.854 -631.09)"/>
                            </g>
                        </g>
                    </g>
                </g>
                <path id="Path_1638" d="M-200.223 659.749s15.932-2.614 22.273 20.531c0 0 2.245 39.942 21.185 57.137s9.159 42.492-21.185 44.838a39.726 39.726 0 0 1-3.385-25.864s-8.626-18.722-4.535-31.11c0 0-14.365-3.442-7.732-21.351 7.147-13.3-3.09-29.73-3.09-29.73l-11.082-7.407z" class="cls-2" data-name="Path 1638" transform="translate(228.535 -659.342)"/>
            </g>
            <g id="Group_1442" data-name="Group 1442" transform="translate(402.772 255.334)">
                <g id="Group_1441" data-name="Group 1441" transform="translate(14.318)">
                    <path id="Path_1640" d="M-179.3 720.212h-9.441l5.308 163.811h7.05s12.71-51.034 9.308-84.7c-2.919-38.762 3.338-55.564 3.338-55.564" class="cls-2" data-name="Path 1640" transform="translate(188.738 -720.212)"/>
                    <path id="Path_1641" d="M-208.347 720.212l13.612 77.083 47.559 73.049 7.29-3.043s-17.619-52.478-36.388-77.646l9.5-38.123a80.436 80.436 0 0 0 3.09-31.321z" class="cls-2" data-name="Path 1641" transform="translate(213.482 -720.212)"/>
                    <path id="Path_1642" d="M-188.388 779.568l1.053 1.489a1.415 1.415 0 0 1-.27 1.923l-21.237 16.541s-1.093-8.024 8.936-16.4a34.377 34.377 0 0 1 11.518-3.553z" class="cls-1" data-name="Path 1642" transform="translate(261.984 -632.479)"/>
                </g>
                <path id="Path_1643" d="M-156.31 787.945v1.855a1.344 1.344 0 0 1-1.311 1.375h-26.453s3.685-7.125 16.5-7.581a34.74 34.74 0 0 1 11.264 4.351z" class="cls-1" data-name="Path 1643" transform="translate(184.074 -626.528)"/>
            </g>
            <g id="Group_1443" data-name="Group 1443" transform="translate(333.003 173.255)">
                <path id="Path_1644" d="M-110.932 690.815c-4.166-4.684-17.51-8.393-24.491 11.3-8.354 23.567-20.623 40.068-55.539 47.644l.03 11.907s40.1 9.853 75.071-37.664c10.212-13.873 11.813-25.453 4.929-33.187z" class="cls-1" data-name="Path 1644" transform="translate(221.354 -687.09)"/>
                <path id="Path_1645" d="M-127.144 719.32s-4.451-3.695-6.374-4.344c0 0-9.228-4.763-10.708-5.4 0 0-1.928 1.526.258 3.6a31.843 31.843 0 0 0 5.5 3.905 24.678 24.678 0 0 1-7.246-.617c-2.751-.892-8.23-2.5-9.84-1.69s-.278 2.131-.278 2.131 8.418 2.466 10.217 3.008c1.581.476.966 1.021.966 1.021s-10.2-.6-12.029-.709-2.575.867-2.114 2.468c0 0 5.442.357 8.765.872 1.155.178 5.192.069 4.917 1.366 0 0-8.8.389-10.289.277a1.453 1.453 0 0 0-1.388 2.416l11.972.389s.833.186.528.687c-.273.451-5.635 2.062-6.252 2.084s-2.543.258-2.129 1.789c0 0 .213.505 2.022.312s10.408-.818 10.408-.818a26.466 26.466 0 0 0 11.412-2.706c5.754-2.9 5.747-5.472 4.3-2.1l-1.157-3.308z" class="cls-3" data-name="Path 1645" transform="translate(158.921 -653.857)"/>
                <path id="Path_1646" d="M-159.3 726.969l-.81-14.221 8.962-.983 1.207 14.278z" class="cls-1" data-name="Path 1646" transform="translate(188.096 -650.619)"/>
            </g>
        </g>
        <circle id="Ellipse_99" cx="8.146" cy="8.146" r="8.146" class="cls-1" data-name="Ellipse 99" transform="rotate(-38 2629.79 -946.392)"/>
        <circle id="Ellipse_98" cx="16.646" cy="16.646" r="16.646" class="cls-3" data-name="Ellipse 98" transform="rotate(-38 2468.424 -725.312)"/>
        <circle id="Ellipse_100" cx="13.759" cy="13.759" r="13.759" class="cls-2" data-name="Ellipse 100" transform="rotate(-38 2315.196 -1327.226)"/>
        <g id="Group_1506" data-name="Group 1506" transform="translate(499.628 1934.119)">
            <path id="Path_1756" d="M-113.33 1225.894a7.62 7.62 0 0 1-7.618 7.62 7.624 7.624 0 0 1-7.623-7.62 7.176 7.176 0 0 1 .1-1.181l-12.886-6.2a7.562 7.562 0 0 1-4.489 1.472 7.622 7.622 0 0 1-7.618-7.622 7.619 7.619 0 0 1 7.618-7.618 7.574 7.574 0 0 1 4.489 1.47l12.888-6.2a7.516 7.516 0 0 1-.105-1.183 7.622 7.622 0 0 1 7.623-7.618 7.622 7.622 0 0 1 7.623 7.618 7.623 7.623 0 0 1-7.623 7.622 7.593 7.593 0 0 1-5.621-2.487l-12.1 5.822a7.581 7.581 0 0 1 .451 2.571 7.581 7.581 0 0 1-.451 2.572l12.1 5.822a7.606 7.606 0 0 1 5.621-2.482 7.618 7.618 0 0 1 7.621 7.622z" class="cls-7" data-name="Path 1756" transform="translate(921.698 -2063.18)"/>
        </g>
        <path id="Path_1663" d="M-270.413 1001.764l7.384 19.813-20.148-7.884a43.312 43.312 0 0 1-22.761 6.464 43.586 43.586 0 0 1-43.582-43.587 43.584 43.584 0 0 1 43.582-43.581 43.585 43.585 0 0 1 43.586 43.581 43.323 43.323 0 0 1-8.061 25.194z" class="cls-1" data-name="Path 1663" transform="translate(1484.078 123.678)"/>
        <g id="Group_1519" data-name="Group 1519" transform="translate(913 725.676)">
            <path id="Path_1784" d="M286.328 366.672a12.074 12.074 0 0 0-8.861-3.672h-21.934a12.533 12.533 0 1 0 8.274 21.932h5.386a12.527 12.527 0 0 0 17.135-18.26zM263.367 377.1a.755.755 0 0 1-.783.783h-4.7v4.7a.753.753 0 0 1-.783.782h-3.134a.753.753 0 0 1-.783-.782v-4.7h-4.7a.754.754 0 0 1-.783-.783v-3.134a.754.754 0 0 1 .783-.783h4.7v-4.7a.754.754 0 0 1 .783-.783h3.133a.754.754 0 0 1 .783.783v4.7h4.7a.755.755 0 0 1 .783.783zm13.182 3.782a3.131 3.131 0 1 1 .918-2.215 3.021 3.021 0 0 1-.918 2.215zm6.266-6.267a3.131 3.131 0 1 1 .918-2.215 3.018 3.018 0 0 1-.918 2.215zm0 0" class="cls-7" data-name="Path 1784"/>
        </g>
    </g>
</svg>
