<svg xmlns="http://www.w3.org/2000/svg" id="Group_1403" width="74.686" height="86.014" data-name="Group 1403" viewBox="0 0 74.686 86.014">
    <defs>
        <style>
            .cls-1{fill:#fff}
        </style>
    </defs>
    <path id="Path_1523" d="M591.424 106.769c-1.514-.949-3.073-1.823-4.621-2.717q-10.569-6.108-21.136-12.219c-.288-.167-.725-.433-.735-.668-.066-1.533-.034-3.07-.034-4.779l27.063 15.553c.031-.5.063-.782.063-1.061 0-2.841-.034-5.682 0-8.522a1.444 1.444 0 0 0-.86-1.424q-16.956-9.791-33.894-19.613c-.268-.155-.549-.286-.951-.495-.042.331-.079.486-.08.641q-.082 12.878-.134 25.757a1.345 1.345 0 0 0 .555.96c1.238.786 2.527 1.492 3.8 2.226q11.028 6.365 22.05 12.739c.3.176.726.481.746.751.083 1.163.035 2.335.035 3.7l-27.218-15.7v1.277c0 2.681.029 5.363-.024 8.043a1.472 1.472 0 0 0 .887 1.489q17.219 9.9 34.416 19.847c.236.136.491.241.8.391a3.243 3.243 0 0 0 .07-.444c-.046-8.234-.087-16.469-.17-24.7a1.47 1.47 0 0 0-.628-1.032z" class="cls-1" data-name="Path 1523" transform="translate(-556.044 -46.933)"/>
    <path id="Path_1524" d="M636.734-33.323c-.072-.118-.091-.194-.138-.221-2.7-1.571-5.4-3.152-8.131-4.683a1.264 1.264 0 0 0-1.031.068c-1.4.756-2.776 1.575-4.158 2.372q-10.864 6.271-21.734 12.533c-.3.174-.788.387-1.022.264-1.57-.825-3.1-1.735-4.81-2.718l22.862-12.9c-2.3-1.3-4.5-2.349-6.487-3.715-1.709-1.177-3.01-1.059-4.778-.014-6.484 3.833-13.085 7.468-19.65 11.164-.314.177-.8.42-1.036.3-1.466-.737-2.884-1.569-4.555-2.5l27.27-15.685c-.413-.278-.635-.447-.876-.586-2.323-1.34-4.661-2.655-6.966-4.025a1.264 1.264 0 0 0-1.478.024q-16.978 9.858-33.973 19.687c-.266.154-.514.337-.869.572.333.229.551.4.788.539q17.07 9.982 34.136 19.97a1.185 1.185 0 0 0 1.382-.022q17.281-10 34.579-19.97c.235-.131.452-.303.675-.454z" class="cls-1" data-name="Path 1524" transform="translate(-563.425 53.895)"/>
    <path id="Path_1525" d="M793.093 72.066c0-.3-.038-.607-.064-1.007a6.674 6.674 0 0 0-.7.292q-17.207 9.926-34.4 19.883a1.528 1.528 0 0 0-.641 1.111q-.131 20.1-.189 40.209c0 .155.022.309.041.553a2.085 2.085 0 0 0 .378-.107c3.919-2.273 7.843-4.538 11.741-6.847a1.363 1.363 0 0 0 .5-1 67.562 67.562 0 0 0 0-4.785 1.457 1.457 0 0 1 .869-1.5c7.232-4.128 14.44-8.3 21.673-12.424a1.626 1.626 0 0 0 .967-1.637q-.116-16.37-.175-32.741zM784.35 99a1.338 1.338 0 0 1-.53.978c-4.913 2.842-9.848 5.646-14.781 8.455a6.705 6.705 0 0 1-.674.261v-3.972c-.007-2.233-.046-4.466 0-6.7a1.552 1.552 0 0 1 .571-1.149c4.937-2.866 9.9-5.683 14.864-8.506a4.382 4.382 0 0 1 .588-.22 7.4 7.4 0 0 1 .087.805c-.03 3.348-.052 6.698-.125 10.048z" class="cls-1" data-name="Path 1525" transform="translate(-718.59 -47.123)"/>
</svg>
