<svg xmlns="http://www.w3.org/2000/svg" id="Group_1402" width="168.314" height="66.279" data-name="Group 1402" viewBox="0 0 168.314 66.279">
    <defs>
        <style>
            .cls-1{fill:#fff}
        </style>
    </defs>
    <path id="Path_1501" d="M1016 361.562a13.968 13.968 0 0 0 .482-1.636c.148-.855.607-1.334 1.456-1.167s1.006.83.969 1.646a28.221 28.221 0 0 0-.078 5.719c1.2 7.432 5.86 11.972 12.717 14.492a29.555 29.555 0 0 0 14.1 1.421c.924-.116 2.164-.549 2.413.864.254 1.445-1.044 1.454-1.976 1.558-8.868.989-17.095-.452-23.9-6.708a18.274 18.274 0 0 1-5.691-10.8 12.906 12.906 0 0 0-.487-1.634z" class="cls-1" data-name="Path 1501" transform="translate(-1016 -323.764)"/>
    <path id="Path_1502" d="M1160.948 228.3c-2.6 10.322-7.147 15.684-17.292 16.025-4.855.163-9.727-.2-14.592-.3-6.147-.134-12.112.662-17.638 3.583-3.958 2.092-7.566 4.645-9.875 8.581a10.532 10.532 0 0 0-1.378 4.38 2.825 2.825 0 0 0 4.207 2.762 16.724 16.724 0 0 0 3.6-2.515c4.173-3.676 8.487-7.1 13.8-9.044.477-.174.736-.945 1.1-1.438-.6-.221-1.265-.728-1.8-.618-4.854.995-8.909 3.548-12.587 6.756-1.006.878-1.915 1.872-2.835 2.843-.606.64-1.37.978-1.926.248a1.929 1.929 0 0 1 .08-1.852c4.578-5.157 10.033-8.957 16.884-10.453 2.122-.463 3.91.44 4.5 2.161a3.628 3.628 0 0 1-2.251 4.585c-5.213 1.951-9.5 5.247-13.577 8.893a22.085 22.085 0 0 1-2.671 2.01c-2.25 1.464-4.578 1.723-6.891.15-1.872-1.273-2.6-3.775-1.92-6.519.939-3.764 3.3-6.593 6.187-9.006a32.439 32.439 0 0 1 20.086-7.783c4.315-.155 8.645.067 12.967.161 3.7.081 7.413.321 11.042-.707a11.858 11.858 0 0 0 6.923-5.074c-1.925.65-3.659 1.3-5.432 1.819-3.527 1.029-7.157.861-10.773.789-.847-.017-1.4-.438-1.369-1.295.035-.89.676-1.111 1.5-1.135 2.716-.08 5.454-.032 8.14-.371a21.011 21.011 0 0 0 11.769-5.906c.621-.578 1.282-1.102 2.022-1.73z" class="cls-1" data-name="Path 1502" transform="translate(-1075.756 -228.296)"/>
    <path id="Path_1503" d="M1136.492 264.53c-2.805 8.636-7.146 15.62-15.406 19.482-.283.132-.569.258-.859.373-.756.3-1.459.26-1.773-.592-.29-.788.1-1.29.831-1.719a66.378 66.378 0 0 0 6.1-3.816 19.373 19.373 0 0 0 4.8-5.649 44.578 44.578 0 0 1-5.753 2.87 117.34 117.34 0 0 1-11.44 3.2 29.6 29.6 0 0 0-13.124 6.586 56.586 56.586 0 0 1-7.453 5.428c-3.691 2.23-7.653 2.935-11.718.817-4.216-2.2-6.324-6.692-5.576-11.758.842-5.7 3.859-10.145 8.192-13.7a39.759 39.759 0 0 1 23.108-9.228c3.114-.2 6.244-.148 9.367-.2a7.391 7.391 0 0 1 1.07.05c.794.1 1.51.486 1.249 1.348a2.04 2.04 0 0 1-1.365 1.081 9.707 9.707 0 0 1-2.4-.047c-8.694-.4-16.992.937-24.588 5.483-4.85 2.9-9 6.458-11.2 11.845a12.867 12.867 0 0 0-.979 6.665 8.062 8.062 0 0 0 10.587 6.834 21.856 21.856 0 0 0 8.517-5.184 34.836 34.836 0 0 1 18.874-9.076 36.608 36.608 0 0 0 17.447-8.291c1.067-.873 2.151-1.732 3.492-2.802z" class="cls-1" data-name="Path 1503" transform="translate(-1059.166 -249.028)"/>
    <path id="Path_1504" d="M1143.643 362.415a11.04 11.04 0 0 1-2.23 7.15c-3.312 4.631-7.888 7.691-12.912 10.141-1.718.838-3.532 1.478-5.309 2.193-.8.322-1.55.261-1.875-.654-.333-.94.284-1.389 1.078-1.668a37.874 37.874 0 0 0 14.3-8.406 30.9 30.9 0 0 0 3.486-4.373 7.385 7.385 0 0 0 .908-2.349 3.525 3.525 0 0 0-1.2-3.849 3.268 3.268 0 0 0-3.98-.42c-1.836 1.08-3.572 2.334-5.33 3.545-2.9 2-5.7 4.136-8.686 5.987a17.662 17.662 0 0 1-7.727 2.4c-.87.083-1.587-.067-1.744-.989-.16-.943.474-1.375 1.349-1.446a20.714 20.714 0 0 0 10.52-4.274c2.2-1.595 4.255-3.4 6.487-4.952a21.527 21.527 0 0 1 5.1-2.849c3.922-1.353 7.759 1.621 7.765 4.813z" class="cls-1" data-name="Path 1504" transform="translate(-1086.556 -322.694)"/>
    <path id="Path_1505" d="M1034.1 297.8a21.9 21.9 0 0 0-7.386 7.973c-.19.353-.284.849-.578 1.034a2.139 2.139 0 0 1-1.5.4c-.323-.1-.65-.826-.628-1.257a3.99 3.99 0 0 1 .644-1.588 24.452 24.452 0 0 1 11.814-10.646 30.622 30.622 0 0 1 5.048-1.747l-2.367 3.029a21.751 21.751 0 0 0-4.973 12.6c-.244 5.794 2.656 12.133 9.61 13.862.911.227 1.345.741 1.094 1.633-.276.983-1.06.92-1.853.712a14.913 14.913 0 0 1-11.2-13.9 28.373 28.373 0 0 1 .4-6.117 51.143 51.143 0 0 1 1.875-5.988z" class="cls-1" data-name="Path 1505" transform="translate(-1021.865 -274.902)"/>
    <path id="Path_1506" d="M1118.215 397.638c-.356.023-.712.044-1.068.07-.818.06-1.47-.2-1.5-1.1-.031-.857.535-1.225 1.365-1.321a63.641 63.641 0 0 0 6.484-.853c9.12-2.029 16.927-6.306 22.7-13.829 2.236-2.916 3.774-6.158 3.615-9.978-.035-.842.294-1.4 1.206-1.415.938-.017 1.191.582 1.229 1.4a17.172 17.172 0 0 1-3.674 10.946c-4.734 6.61-11.223 10.862-18.754 13.641a39.613 39.613 0 0 1-11.603 2.439z" class="cls-1" data-name="Path 1506" transform="translate(-1088.933 -331.437)"/>
    <path id="Path_1507" d="M1329.01 316.74l2.033-11.533c.163-.923.278-1.858.506-2.765a2.363 2.363 0 0 1 2.171-1.893c1.088-.114 1.528.631 1.93 1.508 1.507 3.285 3.065 6.547 4.61 9.814.143.3.337.578.688 1.173l1.738-9.74.188-1.055c.333-1.833.333-1.833 2.429-1.612a4.187 4.187 0 0 1-.006.728c-.774 4.4-1.543 8.791-2.359 13.179a3.249 3.249 0 0 1-.728 1.528 1.88 1.88 0 0 1-3.3-.566q-2.332-4.968-4.681-9.928a2.118 2.118 0 0 0-.782-.96l-2.178 12.122z" class="cls-1" data-name="Path 1507" transform="translate(-1245.108 -281.173)"/>
    <path id="Path_1508" d="M1329.5 376.176c.284-2.23.27-2.251-1.434-2.255-1.652 0-3.306.031-4.958-.012a1.306 1.306 0 0 0-1.513 1.292q-.828 4.952-1.747 9.889c-.169.9.132 1.252 1.014 1.247 2.01-.013 4.023.049 6.028-.049a1.635 1.635 0 0 0 1.193-.921 29.461 29.461 0 0 0 .711-3.676c.135-.836-.433-.967-1.077-.969h-4.662c-.149-1.893-.143-1.9 1.585-1.9 1.43 0 2.859-.015 4.288 0 1.929.027 2.794 1.045 2.481 2.914a98.223 98.223 0 0 1-.694 3.82 3.168 3.168 0 0 1-3.215 2.667q-4.02.052-8.04 0a2.1 2.1 0 0 1-2.3-2.695q.895-5.483 1.945-10.941a3.062 3.062 0 0 1 3.17-2.534c2.59-.03 5.182-.035 7.772 0a2.169 2.169 0 0 1 2.036 3.319c-.33.528-1.552.511-2.583.804z" class="cls-1" data-name="Path 1508" transform="translate(-1236.398 -333.502)"/>
    <path id="Path_1509" d="M1090.708 394.32c-1.848-.248-3.7-.472-5.542-.753-.9-.136-1.725-.493-1.456-1.633.249-1.053 1.044-.982 1.917-.79 8.141 1.788 15.346-.67 21.979-5.15a73.838 73.838 0 0 0 6.574-5.652 3.235 3.235 0 0 1 1.275-.864 1.337 1.337 0 0 1 1.176.533 1.868 1.868 0 0 1-.232 1.536 35.973 35.973 0 0 1-12.22 9.572 35.15 35.15 0 0 1-13.471 3.201z" class="cls-1" data-name="Path 1509" transform="translate(-1065.523 -338.947)"/>
    <path id="Path_1510" d="M1521.85 327.875c-2.684 0-5.264.06-7.839-.028a1.782 1.782 0 0 1-1.812-1.944 16.7 16.7 0 0 1 .769-4.175 2.818 2.818 0 0 1 2.825-1.879c1.426-.024 2.855-.062 4.279 0 .987.045 1.067-.589 1.149-1.268.1-.847-.463-.936-1.1-.934q-2.53.005-5.055 0c-.027-1.96-.027-1.961 1.784-1.962 1.427 0 2.855-.037 4.28.013 1.837.065 2.658 1.088 2.349 2.907-.522 3.072-1.079 6.133-1.629 9.27zm-1.44-6.138c-1.412 0-2.79-.058-4.159.033-.441.029-1.152.38-1.23.7a20.011 20.011 0 0 0-.345 3.246c0 .063.3.214.455.211 1.552-.019 3.1-.061 4.656-.1.248-1.212.5-2.423.739-3.637.016-.068-.039-.16-.116-.452z" class="cls-1" data-name="Path 1510" transform="translate(-1379.191 -292.254)"/>
    <path id="Path_1511" d="M1384.72 391.363c.656-2.024.555-2.176-1.328-2.18h-4.644l.334-1.842c2.244 0 4.465-.079 6.677.033a1.953 1.953 0 0 1 1.648 2.371q-.719 4.491-1.592 8.956a1.184 1.184 0 0 1-.887.687q-3.412.084-6.827.01a1.946 1.946 0 0 1-2.057-2.262 19.415 19.415 0 0 1 .617-3.552 3.212 3.212 0 0 1 3.177-2.215c1.644-.027 3.288-.006 4.882-.006zm-.218 1.924c-1.636 0-3.014-.058-4.382.033-.446.03-1.166.374-1.243.7a18.958 18.958 0 0 0-.344 3.251c0 .067.376.224.579.227 1.336.023 2.674.045 4.007-.01a.971.971 0 0 0 .712-.569c.263-1.119.428-2.252.669-3.632z" class="cls-1" data-name="Path 1511" transform="translate(-1279.528 -344.689)"/>
    <path id="Path_1512" d="M1605.539 323.038l.372-1.887c1 0 1.97.033 2.941-.009 1.116-.048 1.577-.877 1.586-2.618.006-1.216-.893-.908-1.529-.9-4.711.044-3.692-.645-4.542 3.7-.214 1.095-.35 2.206-.6 3.292-.223.968.141 1.329 1.077 1.323 2.136-.014 4.272 0 6.556 0l-.333 1.9c-2.644 0-5.227.05-7.807-.022a2.049 2.049 0 0 1-1.88-2.461q.557-3.571 1.268-7.117a3.169 3.169 0 0 1 3.06-2.552c1.6-.081 3.217-.079 4.821-.007a2.094 2.094 0 0 1 2.219 2.544 12.107 12.107 0 0 1-.509 2.619 2.961 2.961 0 0 1-2.761 2.184c-1.242.073-2.491.011-3.939.011z" class="cls-1" data-name="Path 1512" transform="translate(-1444.448 -292.213)"/>
    <path id="Path_1513" d="M1393.532 323l.336-1.848c.924 0 1.844.018 2.764 0 1.315-.033 1.712-.655 1.771-2.567.04-1.319-.933-.966-1.6-.958-4.51.048-3.64-.68-4.455 3.647-.206 1.1-.354 2.206-.609 3.29-.243 1.036.155 1.395 1.151 1.384 2.134-.023 4.268-.007 6.478-.007l-.326 1.876c-2.672 0-5.341.068-8-.032a2.021 2.021 0 0 1-1.68-2.489c.378-2.379.79-4.754 1.276-7.113a3.165 3.165 0 0 1 3.1-2.5 53.868 53.868 0 0 1 4.687-.006 2.172 2.172 0 0 1 2.288 2.747 16.856 16.856 0 0 1-.382 2.106 3 3 0 0 1-2.55 2.442 35.767 35.767 0 0 1-4.249.028z" class="cls-1" data-name="Path 1513" transform="translate(-1289.258 -292.216)"/>
    <path id="Path_1514" d="M1491.265 394.522l.323-1.944c1.015 0 1.981.027 2.944-.007 1.111-.04 1.578-.827 1.612-2.593.023-1.182-.86-.938-1.52-.932-4.79.046-3.672-.634-4.606 3.814-.229 1.09-.37 2.2-.579 3.294-.168.88.177 1.239 1.059 1.226 1.7-.024 3.391-.006 5.087-.005h1.294c.087 1.889.083 1.9-1.592 1.9-1.964 0-3.928.025-5.891-.011a2.113 2.113 0 0 1-2.293-2.7q.525-3.37 1.2-6.717a3.161 3.161 0 0 1 3.186-2.7q2.341-.066 4.686 0a2.159 2.159 0 0 1 2.263 2.741 17.587 17.587 0 0 1-.443 2.23 3.13 3.13 0 0 1-2.649 2.338 6.7 6.7 0 0 1-1.067.065c-.933.007-1.862.001-3.014.001z" class="cls-1" data-name="Path 1514" transform="translate(-1360.791 -344.543)"/>
    <path id="Path_1515" d="M1478.381 314.867l-.351 1.892c-2.639 0-5.264.056-7.884-.025a2.059 2.059 0 0 1-1.818-2.509 657.487 657.487 0 0 1 1.982-11.055 2.912 2.912 0 0 1 2.7-2.591c2.568-.157 5.152-.044 7.723-.044.059 1.82.01 1.878-1.6 1.884s-3.212.031-4.817-.006a1.326 1.326 0 0 0-1.521 1.3 493.8 493.8 0 0 1-1.711 9.746c-.211 1.116.189 1.446 1.24 1.424 1.949-.045 3.905-.016 6.057-.016z" class="cls-1" data-name="Path 1515" transform="translate(-1347.058 -281.142)"/>
    <path id="Path_1516" d="M1556.8 327.915c-.217-1.616.467-2.023 1.835-1.927 1.555.11 3.124.051 4.686.013 1.155-.028 1.735-1.021 1.647-2.689-.063-1.191-.983-.788-1.609-.824-.979-.057-1.965.018-2.945-.025a2.171 2.171 0 0 1-2.308-2.72c.367-3.066 1.442-4.017 4.544-4.019h5.041c.127 1.873.056 1.956-1.53 1.96-1.429 0-2.858.029-4.286-.006s-1.354 1.079-1.46 1.953c-.133 1.1.773.859 1.391.877 1.071.031 2.144-.025 3.214.02a2.117 2.117 0 0 1 2.258 2.514 12.386 12.386 0 0 1-.443 2.5 2.98 2.98 0 0 1-2.779 2.347c-2.405.099-4.814.026-7.256.026z" class="cls-1" data-name="Path 1516" transform="translate(-1411.808 -292.288)"/>
    <path id="Path_1517" d="M1531.895 399.213c-.23-1.547.369-1.988 1.71-1.894 1.553.109 3.12.042 4.681.019 1.274-.018 1.847-.92 1.759-2.7-.058-1.194-.983-.785-1.607-.819-1.068-.057-2.142.024-3.21-.035a2.035 2.035 0 0 1-2.07-2.29c.123-2.514.947-4.6 4.415-4.408 1.724.094 3.458.016 5.341.016l-.284 1.905c-1.828 0-3.562-.008-5.3 0-1.4.009-2.058.7-1.833 2.093a1.321 1.321 0 0 0 .984.745c1.2.1 2.407.012 3.609.054a2.07 2.07 0 0 1 2.259 2.483 12.474 12.474 0 0 1-.441 2.5 2.9 2.9 0 0 1-2.655 2.3c-2.436.107-4.884.031-7.358.031z" class="cls-1" data-name="Path 1517" transform="translate(-1393.575 -344.512)"/>
    <path id="Path_1518" d="M1427.978 398.458c.465-2.668.941-5.34 1.393-8.016.275-1.629.209-1.691-1.4-1.7-2.144-.017-2.156-.02-2.553 2.12s-.775 4.305-1.151 6.46c-.33 1.888-.345 1.9-2.5 1.451l1.29-7.471a7.982 7.982 0 0 1 .411-1.958 4.13 4.13 0 0 1 1.344-1.9c1.888-1.06 3.977-.815 5.956-.275.946.258 1.2 1.274 1.041 2.238q-.7 4.227-1.465 8.445c-.166.922-.515.998-2.366.606z" class="cls-1" data-name="Path 1518" transform="translate(-1313.003 -344.244)"/>
    <path id="Path_1519" d="M1439.516 309.906c-.132.954-.2 1.475-.306 2.212h4.226c.02 1.943.013 1.95-1.651 1.957-2.938.012-2.938.012-3.469 2.951-.206 1.142-.377 2.291-.63 3.422-.218.975.174 1.326 1.1 1.31.975-.017 1.951 0 3.1 0l-.319 1.9c-1.49 0-2.959.068-4.419-.021a2.08 2.08 0 0 1-1.84-2.5 380.132 380.132 0 0 1 1.826-10.276c.284-1.47 1.46-.401 2.382-.955z" class="cls-1" data-name="Path 1519" transform="translate(-1322.89 -288.031)"/>
    <path id="Path_1520" d="M1036.734 375.639c.2-.191.581-.862 1-.883a1.67 1.67 0 0 1 1.347.893 15.54 15.54 0 0 0 7.118 10.083 1.837 1.837 0 0 1 .513 1.632c-.084.306-1.08.665-1.512.525-3.523-1.15-8.434-8.111-8.466-12.25z" class="cls-1" data-name="Path 1520" transform="translate(-1031.176 -335.497)"/>
    <path id="Path_1521" d="M1465.606 399.33c.5-2.916.983-5.673 1.457-8.431.293-1.7.262-1.734-1.45-1.766-.393-.007-.786-.042-1.185-.065a2.408 2.408 0 0 1-.02-.471c.07-.394.161-.785.274-1.314a29.048 29.048 0 0 1 3.154.024 2.027 2.027 0 0 1 1.713 2.455c-.48 2.947-.977 5.893-1.564 8.819-.304 1.509-1.459.551-2.379.749z" class="cls-1" data-name="Path 1521" transform="translate(-1344.207 -344.642)"/>
    <path id="Path_1522" d="M1487.016 328.228l.362-1.829h5.526c-.03 1.827-.03 1.828-1.73 1.829z" class="cls-1" data-name="Path 1522" transform="translate(-1360.761 -300.103)"/>
</svg>
