<svg xmlns="http://www.w3.org/2000/svg" id="Group_1404" width="141.938" height="53.682" data-name="Group 1404" viewBox="0 0 141.938 53.682">
    <defs>
        <style>
            .cls-1{fill:#fff}
        </style>
    </defs>
    <path id="Path_1526" d="M563.711-832.737c2.654 1.234 5.262 2.443 7.861 3.67a.591.591 0 0 1 .276.436c.022 1.253.012 2.507.012 3.76l-.143.031c-.471-.716-.935-1.437-1.418-2.144a1.3 1.3 0 0 0-.465-.458c-1.273-.594-2.56-1.154-3.836-1.741-.266-.122-.412-.085-.541.181a73.708 73.708 0 0 1-.978 1.921.661.661 0 0 0 .034.766c.772 1.135 1.5 2.3 2.283 3.427a2.473 2.473 0 0 0 .7.59c1.532 1 3.076 1.986 4.6 2.994a.585.585 0 0 0 .745.008c1.056-.683 2.135-1.332 3.184-2.025a.807.807 0 0 0 .321-.575 476.02 476.02 0 0 0-.085-6.864.91.91 0 0 0-.171-.488 127.632 127.632 0 0 0-2.262-3.021 1.437 1.437 0 0 0-.634-.418c-3.676-1.313-7.359-2.608-11.034-3.922a.65.65 0 0 0-.748.13c-1.333 1.182-2.68 2.348-4.009 3.535a1.291 1.291 0 0 0-.351.569q-.711 2.37-1.378 4.752a.95.95 0 0 0 .04.6c.744 1.617 1.466 3.247 2.29 4.824a8.125 8.125 0 0 0 1.35 1.656c1.317 1.41 2.658 2.8 3.989 4.194.055.057.1.123.23.284-1.464-.557-2.846-1-4.15-1.614a8.26 8.26 0 0 1-1.7-1.387c-1.036-.9-2.079-1.8-3.083-2.731a2.329 2.329 0 0 1-.628-1c-.67-2.3-1.3-4.619-1.929-6.935a.679.679 0 0 1 .087-.488c1.249-1.917 2.465-3.857 3.792-5.719a17.79 17.79 0 0 1 2.076-2.144c1.357-1.347 2.731-2.678 4.079-4.034a.509.509 0 0 1 .746-.095c3.584 2.092 7.2 4.137 10.759 6.265 1.794 1.072 3.5 2.283 5.241 3.449a.836.836 0 0 1 .306.51q.934 5.555 1.827 11.118a.691.691 0 0 1-.214.56q-3.372 2.448-6.777 4.85a.587.587 0 0 1-.48.057q-3.036-1.248-6.056-2.537a3.274 3.274 0 0 1-.78-.58c-1.3-1.122-2.6-2.246-3.88-3.386a1.7 1.7 0 0 1-.464-.663 250.38 250.38 0 0 1-1.617-4.674.689.689 0 0 1 .009-.5c.942-1.625 1.9-3.24 2.86-4.856a1.607 1.607 0 0 1 .114-.138z" class="cls-1" data-name="Path 1526" transform="translate(-472.849 842.328)"/>
    <path id="Path_1527" d="M272.408-794.633h3.213v21.773c-.954 0-1.914.015-2.871-.019-.114 0-.257-.256-.323-.419q-1.747-4.312-3.477-8.63-.923-2.294-1.851-4.587a1.321 1.321 0 0 0-.284-.463v14.078h-3.228v-21.72h3.392l5.33 13.147.1-.016z" class="cls-1" data-name="Path 1527" transform="translate(-212.676 799.314)"/>
    <path id="Path_1528" d="M1076.045-773.041c-1.185 0-2.3-.015-3.406.008-.364.008-.379-.248-.456-.463q-1.587-4.423-3.165-8.85c-.1-.286-.209-.571-.338-.921-.588 1-1.151 1.936-1.687 2.888a1.219 1.219 0 0 0-.083.57q-.008 3.09 0 6.18v.559h-3.377v-21.721h3.36v8.685l.117.032c.192-.342.388-.682.574-1.028q1.99-3.683 3.971-7.372a.581.581 0 0 1 .6-.363c1.056.019 2.112.007 3.256.007-.392.676-.74 1.279-1.091 1.88-1.1 1.891-2.2 3.783-3.313 5.668a.792.792 0 0 0-.062.769q2.469 6.445 4.911 12.9c.065.166.113.337.189.572z" class="cls-1" data-name="Path 1528" transform="translate(-934.107 799.498)"/>
    <path id="Path_1529" d="M90.388-794.583h3.4v.59c0 4.889.011 9.778-.01 14.667a14.433 14.433 0 0 1-.239 2.581 4.947 4.947 0 0 1-4.876 4.222 6.756 6.756 0 0 1-3.359-.5 5.148 5.148 0 0 1-2.939-4.488 29.101 29.101 0 0 1-.12-2.641c-.011-4.595-.005-9.189-.005-13.784v-.625h3.405v.6c0 4.856-.01 9.712.011 14.568a9.92 9.92 0 0 0 .25 2.18 1.937 1.937 0 0 0 2.059 1.536 1.954 1.954 0 0 0 2.146-1.484 7.637 7.637 0 0 0 .264-1.931c.021-4.97.011-9.941.011-14.912z" class="cls-1" data-name="Path 1529" transform="translate(-49.127 799.269)"/>
    <path id="Path_1530" d="M-242.672-792.505l-3.178.937a8.574 8.574 0 0 0-.5-1.317 5.487 5.487 0 0 0-1.012-1.355 2.2 2.2 0 0 0-2.566-.183 2.263 2.263 0 0 0-.988 2.383 3.792 3.792 0 0 0 1.479 2.242c1.417 1.158 2.857 2.289 4.261 3.462a7.009 7.009 0 0 1 2.508 3.707 5.512 5.512 0 0 1-5.516 7.1 10.009 10.009 0 0 1-2.423-.26c-2.42-.62-3.626-2.4-4.258-4.678-.1-.374-.169-.759-.262-1.183l3.2-.936c.211.662.361 1.3.616 1.9a2.922 2.922 0 0 0 2.75 2.012 2.383 2.383 0 0 0 2.443-3.218 3.726 3.726 0 0 0-.994-1.588c-1.446-1.3-2.972-2.5-4.467-3.746a7.477 7.477 0 0 1-2.7-3.876 5.208 5.208 0 0 1 4.442-6.71c3.619-.545 6.274 1.319 7.165 5.307z" class="cls-1" data-name="Path 1530" transform="translate(255.129 802.265)"/>
    <path id="Path_1531" d="M894.926-790.315h-3.383c-.076-.7-.1-1.382-.232-2.048a2.321 2.321 0 0 0-2.585-2.135 2.383 2.383 0 0 0-2.21 2.4 16.391 16.391 0 0 0-.084 1.663c.015 2.991.036 5.982.078 8.972a5.821 5.821 0 0 0 .21 1.351 2.094 2.094 0 0 0 1.936 1.674 2.235 2.235 0 0 0 2.358-1.232 6.064 6.064 0 0 0 .548-2.664c.008-.276 0-.551 0-.86h3.384a9.136 9.136 0 0 1-1.269 5.815 4.457 4.457 0 0 1-2.4 1.772 7.215 7.215 0 0 1-4.626-.021 5.048 5.048 0 0 1-3.451-4.739c-.184-2.522-.152-5.062-.163-7.594a58.207 58.207 0 0 1 .141-4.652 5.2 5.2 0 0 1 5.5-5.031 8.424 8.424 0 0 1 2.227.247c2.332.66 3.453 2.39 3.836 4.667.132.78.126 1.584.185 2.415z" class="cls-1" data-name="Path 1531" transform="translate(-771.326 802.032)"/>
    <path id="Path_1532" d="M-79.407-772.729h-3.423v-18.619h-4.2v-3.126h11.792v3.1h-4.173z" class="cls-1" data-name="Path 1532" transform="translate(103.525 799.171)"/>
    <path id="Path_1533" d="M460.6-775.8v3.126h-10.077V-794.4h3.377v18.6z" class="cls-1" data-name="Path 1533" transform="translate(-381.265 799.105)"/>
    <path id="Path_1534" d="M459.244-436.232V-451.3c1.686.056 3.362-.01 5 .2a3.406 3.406 0 0 1 2.942 3.579c.083 2.531.1 5.07-.006 7.6a3.657 3.657 0 0 1-3.987 3.69c-1.305.005-2.612-.001-3.949-.001zm2.366-12.979v10.894c.5 0 .954.036 1.4-.007a1.7 1.7 0 0 0 1.729-1.629c.081-2.493.034-4.991.036-7.487a.771.771 0 0 0-.03-.193 1.78 1.78 0 0 0-1.553-1.487c-.509-.064-1.031-.061-1.582-.09z" class="cls-1" data-name="Path 1534" transform="translate(-389.13 489.68)"/>
    <path id="Path_1535" d="M822.552-445.17c0 1.291.055 2.585-.023 3.871a5.5 5.5 0 0 1-.512 1.919 3.172 3.172 0 0 1-2.755 1.85 6.919 6.919 0 0 1-2.089-.114 3.467 3.467 0 0 1-2.663-3.256c-.1-1.35-.1-2.709-.1-4.064 0-1.437-.044-2.882.081-4.31.244-2.777 2.178-3.919 4.813-3.574a3.6 3.6 0 0 1 3.232 3.71c.065 1.32.012 2.646.012 3.969zm-2.353-.015c0-1.306.034-2.613-.011-3.917a1.559 1.559 0 0 0-1.514-1.615 1.583 1.583 0 0 0-1.827 1.436 5.039 5.039 0 0 0-.082.923q-.01 3.184 0 6.368a4.79 4.79 0 0 0 .112 1.067 1.538 1.538 0 0 0 1.534 1.262 1.6 1.6 0 0 0 1.779-1.657c.047-1.282.01-2.582.01-3.867z" class="cls-1" data-name="Path 1535" transform="translate(-709.427 491.13)"/>
    <path id="Path_1536" d="M251.9-450.627h2.358v.576c0 3.3-.007 6.605.006 9.908a6.732 6.732 0 0 0 .158 1.455 1.345 1.345 0 0 0 1.434 1.085 1.346 1.346 0 0 0 1.464-1.045 5.918 5.918 0 0 0 .169-1.4c.013-3.319.007-6.638.006-9.957v-.605h2.356v.522c0 3.335.008 6.671-.006 10.006a10.554 10.554 0 0 1-.153 1.7 3.385 3.385 0 0 1-3.25 2.934 6.44 6.44 0 0 1-1.846-.134 3.518 3.518 0 0 1-2.637-3.583c-.057-1.387-.052-2.777-.057-4.166-.008-2.224 0-4.447 0-6.671z" class="cls-1" data-name="Path 1536" transform="translate(-202.135 489.072)"/>
    <path id="Path_1537" d="M-144.647-441.63l2.115-.615c.217.561.381 1.089.621 1.581a1.87 1.87 0 0 0 1.4 1.05 1.678 1.678 0 0 0 1.981-2.275 2.531 2.531 0 0 0-.663-1.006c-1.064-.941-2.185-1.818-3.26-2.748a4.349 4.349 0 0 1-1.727-4.141 3.6 3.6 0 0 1 3.422-3.027 4.175 4.175 0 0 1 4.632 3.74l-2.135.64a15.348 15.348 0 0 0-.7-1.442 1.563 1.563 0 0 0-1.686-.735 1.492 1.492 0 0 0-1.08 2.019 2.664 2.664 0 0 0 .7 1.091c.953.845 1.974 1.613 2.944 2.44a7.491 7.491 0 0 1 1.234 1.254 4.026 4.026 0 0 1 .441 4.351 3.8 3.8 0 0 1-3.63 2.059c-2.496.081-4.297-1.406-4.609-4.236z" class="cls-1" data-name="Path 1537" transform="translate(155.491 491.048)"/>
    <path id="Path_1538" d="M1023.551-449.051l-2.151.641a13.444 13.444 0 0 0-.688-1.419 1.556 1.556 0 0 0-2.087-.611 1.5 1.5 0 0 0-.631 2.032 4.468 4.468 0 0 0 1.059 1.314c1.028.908 2.136 1.726 3.159 2.639a4.174 4.174 0 0 1 1.377 4.032 3.461 3.461 0 0 1-2.081 2.667 4.781 4.781 0 0 1-5.37-1.012 5.491 5.491 0 0 1-1.158-2.822l2.178-.642c.155.464.269.9.446 1.315a2.009 2.009 0 0 0 1.476 1.309 1.687 1.687 0 0 0 1.779-.524 1.678 1.678 0 0 0 .2-1.89 4.459 4.459 0 0 0-1.038-1.277c-.92-.809-1.915-1.531-2.839-2.335a4.332 4.332 0 0 1-1.7-4.149 3.6 3.6 0 0 1 3.49-3c2.452-.092 3.945 1.11 4.579 3.732z" class="cls-1" data-name="Path 1538" transform="translate(-890.321 491.025)"/>
    <path id="Path_1539" d="M61.314-450.574v2.041h-2.856v12.93h-2.339v-12.911h-2.893v-2.06z" class="cls-1" data-name="Path 1539" transform="translate(-22.962 489.024)"/>
    <path id="Path_1540" d="M668.606-435.488h-2.278v-14.973h2.278z" class="cls-1" data-name="Path 1540" transform="translate(-575.889 488.922)"/>
</svg>
