<svg xmlns="http://www.w3.org/2000/svg" id="Group_1400" width="161.024" height="21.642" data-name="Group 1400" viewBox="0 0 161.024 21.642">
    <defs>
        <style>
            .cls-1{fill:#fff}
        </style>
    </defs>
    <path id="Path_1488" d="M-248.187-9.428h-19.681l-.538 3.1h7.642l-3.2 18.211h4.332l3.2-18.211h7.707z" class="cls-1" data-name="Path 1488" transform="translate(268.405 9.428)"/>
    <path id="Path_1489" d="M-107.71-1.251h-4.878l1.918 2.752h2.473l-2.078 11.839h4.331l2.083-11.84h5.4l-8.529-6.862z" class="cls-1" data-name="Path 1489" transform="translate(212.596 7.971)"/>
    <path id="Path_1490" d="M-208.8.533a7.509 7.509 0 0 0-5.683 2.253h-.1L-218.4.533c-.141 1.264-.328 2.981-.621 4.667l-1.779 10.25h4.331l1.506-8.584a3.518 3.518 0 0 1 .4-1.171 4.358 4.358 0 0 1 3.726-2.164c2.365 0 3.008 1.595 2.644 3.687l-1.448 8.232h4.332l1.525-8.665c.806-4.614-2.031-6.252-5.016-6.252z" class="cls-1" data-name="Path 1490" transform="translate(251.353 5.86)"/>
    <path id="Path_1491" d="M-237.414.531c-5.507 0-9.031 3.466-9.731 7.492-.775 4.471 1.972 7.744 7.528 7.744a13.79 13.79 0 0 0 6.694-1.517l.587-3.334a11.118 11.118 0 0 1-6.179 2.06c-2.77 0-4.972-1.153-4.626-3.8h11.447a7.238 7.238 0 0 0 .423-1.551c.554-3.194-.579-7.094-6.143-7.094zm2.244 6.073h-7.53a4.854 4.854 0 0 1 4.581-3.555c2.897 0 3.203 2.204 2.95 3.551z" class="cls-1" data-name="Path 1491" transform="translate(260.836 5.861)"/>
    <path id="Path_1492" d="M-191.515 7.964c-.786 4.529 2.385 7.806 7.751 7.806a19.541 19.541 0 0 0 5.647-.972l.7-3.9a6.676 6.676 0 0 1-4.993 1.955c-2.948 0-5.18-1.717-4.661-4.708.451-2.674 2.984-4.73 6.286-4.73a5.4 5.4 0 0 1 4.319 1.964l.671-3.966a12.281 12.281 0 0 0-4.63-.868c-6.02 0-10.332 3.055-11.09 7.419z" class="cls-1" data-name="Path 1492" transform="translate(240.908 5.856)"/>
    <path id="Path_1493" d="M-41.436-4.331c-.362-1.688-.82-3.449-1.207-5.089h-2.726c.362 1.663.749 3.449 1.062 5.089z" class="cls-1" data-name="Path 1493" transform="translate(188.519 9.425)"/>
    <path id="Path_1494" d="M-156.448.531c-5.506 0-9.031 3.466-9.73 7.492-.776 4.471 1.971 7.744 7.528 7.744a13.793 13.793 0 0 0 6.694-1.517l.586-3.334a11.115 11.115 0 0 1-6.179 2.06c-2.769 0-4.97-1.153-4.625-3.8h11.449a7.473 7.473 0 0 0 .423-1.551c.551-3.194-.582-7.094-6.146-7.094zM-154.2 6.6h-7.534a4.853 4.853 0 0 1 4.579-3.555c2.9.004 3.206 2.208 2.955 3.555z" class="cls-1" data-name="Path 1494" transform="translate(231.836 5.861)"/>
    <path id="Path_1495" d="M-63.781-1.326h3.714l.435-1.834H-66a7.029 7.029 0 0 0 .459-1.085h5.186l.455-1.905h-1.737c.409-.893.845-1.954 1.182-2.823h-2.485c-.314.918-.7 1.955-1.086 2.823h-.988a17.637 17.637 0 0 0 .435-3.234h-2.485a14.1 14.1 0 0 1-.483 3.234h-.843l-.579-2.823H-71.4l.628 2.823h-1.718l-.362 1.906h4.777a4.113 4.113 0 0 1-.531 1.085h-4.414l-.41 1.834h3.57A8 8 0 0 1-73.817.8l-.507 2.339a11.118 11.118 0 0 0 2.292-.724l-.724 3.885h8.009c.338 0 .483.121.435.46-.144 1.012-.409 2.242-.627 3.256h-4.728l.53 1.906h6.416c.387-2.1.868-4.585 1.134-6.368.145-.99-.435-1.158-1.23-1.158H-64l.555-2.508a9.981 9.981 0 0 0 3.016 1.253l.82-2.075a7.261 7.261 0 0 1-4.172-2.392zm-2.654 5.717h-3.5l.289-1.447-1.592-.724h5.282zM-68.9.41a10.468 10.468 0 0 0 1.833-1.736h.893A8.836 8.836 0 0 0-65.061.41z" class="cls-1" data-name="Path 1495" transform="translate(198.891 9.412)"/>
    <path id="Path_1496" d="M-43.769.275h-5.065l-.385 2.148h2.267c-.627 4.269-1.5 8.9-2.436 13.267a43.978 43.978 0 0 0 6.248-4.365l.531-3.112c-.916.8-1.93 1.569-2.895 2.293.65-3.428 1.229-6.853 1.735-10.231z" class="cls-1" data-name="Path 1496" transform="translate(189.96 5.953)"/>
    <path id="Path_1497" d="M-26.812-8.406h-11.265l.477 2.146h8.419c.555 0 .82.073.7.7-.314 1.736-.651 3.5-.989 5.21h-3.667l.628-3.666-2.556-1.5L-36-.35h-2.73l-.361 2.15h2.678c-.556 3.474-1.231 7.019-1.93 10.493h2.918c.676-3.5 1.351-7 1.931-10.493h3.643c-.6 3.5-1.28 7.092-1.955 10.493h5.164l.891-2.171H-28.5c1.085-5.524 2.219-11.29 3.183-16.861.217-1.209-.023-1.667-1.495-1.667z" class="cls-1" data-name="Path 1497" transform="translate(186.271 9.062)"/>
    <path id="Path_1498" d="M-66.335 18.334l.411-1.834v-.023h-8.925l.337 1.857h8.178z" class="cls-1" data-name="Path 1498" transform="translate(199.079 .15)"/>
    <path id="Path_1499" d="M-127.833.533a7.51 7.51 0 0 0-5.683 2.253h-.1l-3.815-2.253c-.141 1.264-.329 2.981-.622 4.667l-1.779 10.251h4.33l1.508-8.584a3.531 3.531 0 0 1 .4-1.171 4.361 4.361 0 0 1 3.726-2.164c2.367 0 3.01 1.595 2.646 3.687l-1.447 8.232h4.332l1.524-8.665c.8-4.615-2.036-6.253-5.02-6.253z" class="cls-1" data-name="Path 1499" transform="translate(222.353 5.86)"/>
    <path id="Path_1500" d="M-79.3-8.442h-4.56c-1.157 7.429-2.171 14.159-4.221 20.7h2.436c.531-2.388 1.085-4.9 1.617-7.406h1.736c-.41 2.388-.965 4.97-1.447 7.406h2.439c1.206-6.468 2.266-12.884 3.449-19.374.216-1.134-.266-1.326-1.449-1.326zm-2.6 11.385h-1.737c.265-1.3.531-2.606.771-3.861h1.666zm1.616-8.926l-.6 3.16h-1.64c.241-1.255.433-2.46.627-3.619h1.197c.34.001.485.097.413.459z" class="cls-1" data-name="Path 1500" transform="translate(203.817 9.075)"/>
</svg>
